{"glyphs":{"0":{"ha":522,"x_min":0,"x_max":435,"o":"m 0 296 l 0 730 q 49 936 0 863 q 217 1023 106 1023 q 385 936 328 1023 q 435 730 435 862 l 435 296 q 385 89 435 163 q 217 0 328 0 q 49 89 106 0 q 0 296 0 165 m 131 296 q 141 200 131 233 q 165 152 151 167 q 194 134 179 136 q 217 131 208 131 q 240 134 225 131 q 268 152 254 136 q 292 200 282 167 q 302 296 302 233 l 302 730 q 292 824 302 791 q 268 872 282 857 q 240 890 254 888 q 217 893 225 893 q 194 890 208 893 q 165 872 179 888 q 141 824 151 857 q 131 730 131 791 l 131 296 z "},"1":{"ha":382,"x_min":0,"x_max":290,"o":"m 0 790 l 164 1023 l 290 1023 l 290 0 l 160 0 l 160 786 l 102 705 l 0 790 z "},"2":{"ha":500,"x_min":0,"x_max":435,"o":"m 0 0 l 0 65 q 12 181 0 129 q 46 282 24 233 q 97 378 68 330 l 163 479 l 216 554 l 252 603 q 279 648 269 625 q 296 696 290 671 q 302 755 302 722 q 300 791 302 768 q 288 837 297 814 q 262 877 279 860 q 216 893 245 893 q 191 891 205 893 q 162 876 176 889 q 140 833 149 863 q 131 751 131 804 l 131 685 l 0 685 l 0 751 q 52 946 0 876 q 111 999 71 974 q 216 1023 150 1023 q 303 1005 264 1023 q 371 952 343 986 q 415 869 399 918 q 433 762 432 821 l 435 762 l 435 751 l 433 751 q 422 665 432 703 q 397 594 412 627 q 363 532 382 561 l 322 476 l 297 442 q 272 406 285 425 l 220 325 q 179 256 196 289 q 152 194 163 224 q 136 131 142 164 l 216 131 l 368 131 l 435 131 l 435 0 l 368 0 l 216 0 l 0 0 z "},"3":{"ha":500,"x_min":0,"x_max":435,"o":"m 0 292 l 0 357 l 131 357 l 131 292 q 140 203 131 233 q 158 160 149 174 q 178 140 165 149 q 216 131 191 131 q 264 152 247 131 q 290 199 282 172 q 300 250 298 225 q 302 285 302 275 q 289 361 302 331 q 256 411 275 392 q 216 437 237 429 q 180 446 195 446 l 115 446 l 117 446 l 117 576 l 180 576 q 216 585 194 576 q 256 612 237 593 q 289 661 275 631 q 302 737 302 692 q 300 768 302 743 q 290 821 298 793 q 265 871 282 848 q 216 893 248 893 q 194 890 208 893 q 165 872 179 888 q 141 824 151 857 q 131 730 131 791 l 131 665 l 0 665 l 0 730 q 49 936 0 863 q 217 1023 107 1023 q 386 929 326 1023 q 435 737 435 852 q 406 599 435 652 q 347 518 378 546 l 340 511 q 344 509 343 510 q 347 504 345 507 q 406 423 378 476 q 435 285 435 370 q 422 180 435 228 q 386 94 410 132 q 216 0 326 0 q 49 86 108 0 q 13 174 25 123 q 0 292 0 225 z "},"4":{"ha":528,"x_min":0,"x_max":439,"o":"m 0 286 l 0 416 l 319 1023 l 439 1023 l 439 0 l 309 0 l 309 286 l 0 286 m 150 416 l 309 416 l 309 722 l 150 416 z "},"5":{"ha":516,"x_min":0,"x_max":435,"o":"m 0 218 l 0 240 l 131 240 l 131 218 q 135 195 131 210 q 150 165 139 179 q 176 141 160 151 q 217 131 192 131 q 258 147 241 131 q 285 187 275 163 q 298 238 294 211 q 302 288 302 265 l 302 387 q 294 471 302 441 q 277 513 286 500 q 257 531 270 524 q 217 539 244 539 q 177 530 189 539 q 157 513 164 521 q 131 410 130 478 l 131 366 l 131 364 l 0 364 l 0 366 l 0 410 l 0 1023 l 131 1023 l 435 1023 l 435 893 l 131 893 l 131 654 q 216 671 170 671 q 325 644 284 671 q 385 589 366 616 q 435 387 435 515 l 435 288 q 386 97 435 174 q 313 25 357 50 q 216 0 269 0 q 126 19 168 0 q 54 75 85 39 q 14 143 28 106 q 0 218 0 181 z "},"6":{"ha":511,"x_min":0,"x_max":435,"o":"m 0 262 l 0 396 l 0 397 l 0 673 q 46 914 0 826 q 118 995 74 967 q 216 1023 161 1023 q 312 1004 269 1023 q 383 946 354 985 q 435 766 435 876 l 435 722 l 302 722 l 302 766 q 278 867 302 834 q 258 884 271 875 q 216 893 244 893 q 171 868 187 893 q 145 808 154 843 q 134 735 136 772 q 131 673 131 699 l 131 664 q 216 684 168 684 q 385 600 326 684 q 435 396 435 526 l 435 293 q 419 174 435 228 q 374 80 403 119 q 306 21 346 41 q 216 0 265 0 q 52 81 111 0 q 0 262 0 149 m 131 262 q 157 158 131 193 q 176 140 163 150 q 216 131 189 131 q 258 148 241 131 q 285 189 275 164 q 298 242 294 214 q 302 293 302 271 l 302 396 q 293 486 302 454 q 270 533 283 518 q 242 550 257 547 q 216 553 227 553 q 169 531 186 553 q 144 483 153 510 q 134 431 136 456 q 131 397 131 406 l 131 262 z "},"7":{"ha":595,"x_min":0,"x_max":538,"o":"m 0 893 l 0 1023 l 538 1023 l 538 900 l 160 0 l 17 0 l 393 893 l 0 893 z "},"8":{"ha":538,"x_min":0,"x_max":464,"o":"m 53 81 q 0 289 0 151 q 53 496 0 427 q 59 504 56 500 q 65 513 62 509 q 53 528 61 517 q 0 736 0 597 q 53 943 0 873 q 232 1023 111 1024 q 411 943 351 1023 q 464 736 464 871 q 411 528 464 600 q 399 513 403 517 l 411 496 q 464 289 464 424 q 451 168 464 218 q 411 81 437 117 q 232 0 350 0 q 53 81 113 0 m 131 289 q 140 197 131 229 q 164 151 150 165 q 197 134 179 136 q 232 131 215 131 q 266 134 249 131 q 298 151 283 136 q 322 197 313 165 q 332 289 332 229 q 323 377 332 347 q 306 419 315 407 q 283 438 299 429 q 232 447 268 447 q 181 438 196 447 q 158 419 165 429 q 140 377 149 407 q 131 289 131 347 m 131 736 q 140 644 131 676 q 164 598 150 612 q 197 581 179 583 q 232 578 215 578 q 266 581 249 578 q 298 598 283 583 q 322 644 313 612 q 332 736 332 676 q 322 826 332 794 q 298 873 313 859 q 266 890 283 888 q 232 893 249 893 q 197 890 215 893 q 164 873 179 888 q 140 826 150 859 q 131 736 131 794 z "},"9":{"ha":511,"x_min":0,"x_max":435,"o":"m 0 631 l 0 733 q 49 928 0 850 q 121 999 78 975 q 216 1023 164 1023 q 383 946 325 1023 q 435 764 435 876 l 435 631 l 435 628 l 435 349 q 423 212 435 272 q 389 109 411 151 q 316 28 361 56 q 216 0 272 0 q 121 21 163 0 q 50 82 79 41 q 0 269 0 153 l 0 314 l 131 314 l 131 269 q 141 189 131 216 q 166 148 151 161 q 194 133 180 135 q 216 131 208 131 q 262 154 244 131 q 288 210 279 176 q 300 280 297 243 q 302 349 302 318 l 302 358 q 216 339 261 338 q 50 424 106 339 q 0 631 0 498 m 131 631 q 140 538 131 571 q 163 491 150 505 q 191 473 176 476 q 216 471 205 471 q 264 492 247 471 q 290 542 282 514 q 300 595 298 570 q 302 629 302 621 l 302 764 q 292 839 302 812 q 268 877 282 865 q 240 891 254 889 q 216 893 225 893 q 167 870 184 893 q 142 819 150 847 q 132 765 134 791 q 131 733 131 739 l 131 631 z "}," ":{"ha":427,"x_min":0,"x_max":0,"o":""},"!":{"ha":203,"x_min":0,"x_max":131,"o":"m 0 3 l 0 150 l 131 150 l 131 3 l 0 3 m 0 227 l 0 1026 l 131 1026 l 131 227 l 0 227 z "},"\"":{"ha":393,"x_min":0,"x_max":323,"o":"m 0 814 l 0 1023 l 131 1023 l 131 814 l 0 814 m 193 814 l 193 1023 l 323 1023 l 323 814 l 193 814 z "},"#":{"ha":793,"x_min":-28,"x_max":766,"o":"m -28 317 l -28 449 l 183 449 l 208 579 l 16 579 l 16 711 l 235 711 l 296 1026 l 429 1026 l 368 711 l 475 711 l 534 1026 l 668 1026 l 608 711 l 766 711 l 766 579 l 583 579 l 557 449 l 724 449 l 724 317 l 532 317 l 471 0 l 338 0 l 399 317 l 292 317 l 229 0 l 96 0 l 157 317 l -28 317 m 317 449 l 424 449 l 450 579 l 343 579 l 317 449 z "},"$":{"ha":494,"x_min":0,"x_max":435,"o":"m 0 700 q 13 797 0 753 q 50 875 26 840 q 151 949 87 926 l 151 1026 l 283 1026 l 283 950 q 343 922 319 939 q 382 886 367 904 q 435 700 435 819 l 435 635 l 302 635 l 302 700 q 279 804 302 774 q 259 819 273 811 q 216 827 245 827 q 170 811 187 827 q 144 775 153 796 q 133 733 135 754 q 131 700 131 711 q 138 655 131 673 q 157 624 144 637 q 187 598 170 610 q 225 578 204 587 q 238 572 232 575 q 250 564 244 568 q 267 557 258 561 q 314 533 285 549 q 370 490 343 517 q 415 421 396 463 q 435 321 435 380 q 382 149 435 216 q 283 79 343 96 l 283 0 l 151 0 l 151 78 q 91 105 115 87 q 53 142 66 123 q 0 326 0 207 l 0 393 l 131 393 l 131 326 q 155 224 131 252 q 174 209 161 217 q 216 200 187 200 q 262 213 244 200 q 288 244 279 225 q 300 283 297 262 q 302 321 302 304 q 296 365 302 347 q 277 396 289 383 q 249 418 265 408 q 212 437 232 428 q 183 452 193 444 q 176 456 180 454 q 165 461 171 458 l 118 488 q 64 530 90 503 q 0 700 0 598 z "},"%":{"ha":854,"x_min":0,"x_max":786,"o":"m 0 693 l 0 812 q 12 881 0 850 q 44 936 24 913 q 94 971 65 958 q 157 983 123 983 q 271 936 226 983 q 315 812 315 888 l 315 693 q 303 624 315 656 q 271 570 292 593 q 221 535 250 547 q 157 522 192 522 q 44 570 89 522 q 0 693 0 618 m 131 693 q 157 653 131 653 q 183 693 183 653 l 183 812 q 157 852 183 852 q 131 812 131 852 l 131 693 m 135 3 l 514 1026 l 654 1026 l 275 3 l 135 3 m 471 214 l 471 334 q 515 456 471 409 q 629 504 559 504 q 692 492 663 504 q 742 456 721 479 q 774 402 762 433 q 786 334 786 371 l 786 214 q 774 145 786 176 q 742 91 762 114 q 692 55 721 68 q 629 43 663 43 q 515 91 560 43 q 471 214 471 138 m 603 214 q 629 174 603 174 q 656 214 656 174 l 656 334 q 629 374 656 374 q 603 334 603 374 l 603 214 z "},"&":{"ha":703,"x_min":0,"x_max":659,"o":"m 0 277 q 13 372 0 331 q 48 444 26 412 q 96 499 69 475 l 149 546 q 159 554 154 550 q 168 562 164 558 q 142 610 156 583 q 118 667 129 636 q 99 728 107 697 q 92 791 92 760 q 121 949 92 895 q 254 1026 163 1027 q 393 936 353 1026 q 412 864 409 903 q 415 791 415 825 q 400 679 415 733 q 358 578 386 624 l 346 558 q 335 543 340 550 l 444 357 q 447 404 447 380 l 447 446 l 447 513 l 579 513 l 579 446 q 573 326 579 394 q 541 192 567 257 l 659 3 l 503 3 l 458 72 q 254 3 378 3 q 149 24 197 3 q 65 86 100 46 q 0 277 0 164 m 131 277 q 138 226 131 252 q 159 180 144 200 q 197 147 174 160 q 254 134 221 134 q 389 189 343 134 l 237 450 l 233 446 l 191 408 q 158 371 171 390 q 138 330 144 353 q 131 277 131 307 m 224 791 q 234 732 224 764 q 260 671 244 700 q 276 724 269 694 q 283 791 283 754 l 283 809 q 282 834 283 821 q 279 860 281 847 q 272 884 277 873 q 267 892 269 890 q 254 895 264 895 q 242 893 244 895 q 237 888 240 892 q 228 857 232 878 q 224 791 224 836 z "},"'":{"ha":219,"x_min":0,"x_max":131,"o":"m 0 814 l 0 1023 l 131 1023 l 131 814 l 0 814 z "},"(":{"ha":286,"x_min":0,"x_max":227,"o":"m 0 501 q 66 892 0 747 q 119 975 94 950 q 153 1006 144 1000 l 224 896 q 227 897 225 896 l 211 880 q 178 818 195 862 q 145 696 160 774 q 131 501 131 619 q 144 314 131 389 q 175 196 158 240 q 207 134 192 153 q 225 113 222 115 l 154 1 q 121 31 146 7 q 68 113 96 54 q 17 281 33 183 q 0 501 0 379 z "},")":{"ha":297,"x_min":0,"x_max":227,"o":"m 0 110 l 16 127 q 48 189 31 144 q 80 310 65 233 q 94 505 94 386 q 81 692 94 618 q 51 810 68 766 q 19 873 35 854 q 1 895 4 892 l 72 1006 q 105 977 80 1000 q 158 895 131 953 q 227 505 226 753 q 210 285 227 383 q 158 115 193 187 q 107 32 132 57 q 74 1 82 7 l 3 111 q 0 110 1 111 z "},"*":{"ha":511,"x_min":0,"x_max":456,"o":"m 0 821 l 46 943 l 163 900 l 163 1025 l 293 1025 l 293 900 l 410 943 l 456 821 l 340 778 l 428 677 l 329 591 l 228 705 l 126 591 l 28 677 l 115 778 l 0 821 z "},"+":{"ha":634,"x_min":0,"x_max":538,"o":"m 0 449 l 0 579 l 203 579 l 203 782 l 335 782 l 335 579 l 538 579 l 538 449 l 335 449 l 335 244 l 203 244 l 203 449 l 0 449 z "},",":{"ha":219,"x_min":0,"x_max":131,"o":"m 0 4 l 0 147 l 131 147 l 131 -121 l 0 4 z "},"-":{"ha":522,"x_min":0,"x_max":427,"o":"m 0 449 l 0 579 l 427 579 l 427 449 l 0 449 z "},".":{"ha":258,"x_min":0,"x_max":131,"o":"m 0 0 l 0 147 l 131 147 l 131 0 l 0 0 z "},"/":{"ha":579,"x_min":0,"x_max":519,"o":"m 0 0 l 379 1023 l 519 1023 l 140 0 l 0 0 z "},":":{"ha":203,"x_min":0,"x_max":131,"o":"m 0 227 l 0 419 l 131 419 l 131 227 l 0 227 m 0 608 l 0 802 l 131 802 l 131 608 l 0 608 z "},";":{"ha":219,"x_min":0,"x_max":131,"o":"m 0 286 l 0 419 l 131 419 l 131 154 l 0 286 m 0 608 l 0 802 l 131 802 l 131 608 l 0 608 z "},"<":{"ha":1156,"x_min":0,"x_max":0,"o":""},"=":{"ha":1156,"x_min":0,"x_max":427,"o":"m 0 296 l 0 427 l 427 427 l 427 296 l 0 296 m 0 602 l 0 732 l 427 732 l 427 602 l 0 602 z "},">":{"ha":1156,"x_min":0,"x_max":0,"o":""},"?":{"ha":505,"x_min":0,"x_max":435,"o":"m 0 675 l 0 741 q 50 940 0 867 q 216 1023 109 1023 q 313 999 269 1023 q 386 928 357 975 q 433 753 431 857 l 435 753 l 435 741 l 433 741 q 415 638 432 685 q 374 555 397 591 q 326 490 351 518 q 283 444 301 463 l 267 428 q 249 378 251 408 q 246 294 246 347 l 246 225 l 114 225 l 114 294 q 115 355 114 325 q 120 412 115 385 q 136 464 125 439 q 167 513 147 489 q 178 524 172 518 q 191 538 183 530 l 224 572 q 261 620 243 593 q 290 678 278 646 q 302 747 301 710 q 298 794 302 768 q 283 842 293 819 q 257 879 273 864 q 216 893 241 893 q 192 891 207 893 q 164 874 178 889 q 140 829 150 860 q 131 741 131 798 l 131 675 l 0 675 m 114 0 l 114 147 l 244 147 l 244 0 l 114 0 z "},"@":{"ha":961,"x_min":-27,"x_max":873,"o":"m -20 546 q 121 833 8 718 q 234 919 171 885 q 368 968 297 953 q 466 979 418 978 q 500 977 483 979 q 624 950 565 972 q 731 889 682 928 q 814 799 779 851 q 853 711 838 760 q 872 606 868 661 q 873 576 873 591 q 868 502 873 538 q 843 408 861 451 q 790 328 826 363 q 705 267 754 292 q 612 235 658 243 q 572 232 591 232 q 528 237 549 232 q 449 302 471 254 q 411 299 429 300 q 378 298 393 298 q 235 353 282 298 q 195 473 195 397 q 199 518 195 494 q 260 671 211 618 q 412 733 315 733 q 453 731 432 733 q 498 722 475 729 l 500 737 l 631 715 l 619 650 l 616 633 l 610 589 l 600 530 l 589 465 q 579 406 583 433 q 572 364 575 379 q 596 367 582 364 q 631 378 611 370 q 688 412 664 391 q 721 457 713 433 q 739 524 733 488 q 741 571 742 548 q 741 598 741 585 q 729 669 738 635 q 703 728 720 703 q 646 789 679 762 q 573 830 614 815 q 488 847 533 844 q 467 848 477 848 q 395 840 431 848 q 205 733 281 817 q 110 525 129 650 q 103 450 104 486 q 124 330 103 385 q 240 197 157 247 q 357 151 293 165 q 463 139 410 139 q 489 140 476 139 q 620 164 555 143 q 734 224 684 186 l 787 261 l 865 155 l 812 117 q 647 36 737 64 q 463 8 557 8 q 309 27 383 8 q 171 86 235 46 q 9 267 60 153 q -27 450 -28 349 q -20 546 -28 496 m 328 503 q 326 472 326 485 q 334 439 326 446 q 347 433 336 436 q 378 429 358 429 q 435 437 427 429 q 451 469 441 444 q 471 557 460 494 q 473 578 473 571 q 471 591 473 587 q 452 598 467 594 q 412 602 437 602 q 384 599 397 602 q 360 586 371 596 q 340 557 349 576 q 328 503 332 537 z "},"A":{"ha":606,"x_min":0,"x_max":579,"o":"m 0 0 l 236 1023 l 340 1023 l 579 0 l 443 0 l 378 286 l 200 286 l 135 0 l 0 0 m 231 416 l 347 416 l 289 668 l 231 416 z "},"B":{"ha":522,"x_min":0,"x_max":449,"o":"m 0 0 l 0 131 l 0 1023 l 197 1023 q 389 946 328 1023 q 449 736 448 877 q 389 525 449 597 q 378 513 386 521 q 389 498 386 505 q 449 288 448 427 q 389 78 449 147 q 197 0 326 0 l 131 0 l 0 0 m 131 578 l 197 578 q 261 588 242 578 q 288 608 281 599 q 317 736 317 643 q 308 821 317 790 q 282 869 298 852 q 244 889 267 885 q 197 893 222 893 l 131 893 l 131 578 m 131 131 l 197 131 q 244 135 222 131 q 282 155 267 139 q 308 202 298 171 q 317 288 317 233 q 307 375 317 343 q 281 423 297 407 q 244 443 265 439 q 197 447 222 447 l 131 447 l 131 131 z "},"C":{"ha":538,"x_min":0,"x_max":486,"o":"m 0 293 l 0 732 q 58 943 0 868 q 124 997 81 971 q 243 1023 168 1023 q 361 997 318 1023 q 427 943 404 971 q 486 732 486 867 l 486 667 l 354 667 l 354 732 q 342 825 354 791 q 313 873 330 859 q 276 890 296 888 q 243 893 257 893 q 209 890 227 893 q 172 873 191 888 q 142 825 154 859 q 131 732 131 791 l 131 293 q 163 163 131 203 q 188 142 170 153 q 243 131 205 131 q 298 142 281 131 q 323 163 315 153 q 354 293 354 204 l 354 358 l 486 358 l 486 293 q 427 82 486 158 q 361 27 404 54 q 243 0 318 0 q 176 8 205 0 q 124 27 147 16 q 85 53 102 39 q 58 82 69 68 q 0 293 0 157 z "},"D":{"ha":544,"x_min":0,"x_max":464,"o":"m 0 0 l 0 1023 l 204 1023 q 403 942 336 1023 q 464 728 464 868 l 464 297 q 403 82 464 157 q 204 0 336 0 l 0 0 m 131 131 l 204 131 q 252 136 229 131 q 293 157 275 140 q 321 207 310 174 q 332 297 332 240 l 332 728 q 321 818 332 785 q 293 868 310 851 q 252 889 275 885 q 204 893 229 893 l 131 893 l 131 131 z "},"E":{"ha":516,"x_min":0,"x_max":424,"o":"m 0 0 l 0 1023 l 424 1023 l 424 893 l 131 893 l 131 578 l 424 578 l 424 447 l 131 447 l 131 131 l 424 131 l 424 0 l 0 0 z "},"F":{"ha":516,"x_min":0,"x_max":424,"o":"m 0 0 l 0 1023 l 424 1023 l 424 893 l 131 893 l 131 578 l 424 578 l 424 447 l 131 447 l 131 0 l 0 0 z "},"G":{"ha":573,"x_min":0,"x_max":488,"o":"m 0 292 l 0 733 q 60 945 0 871 q 243 1023 122 1024 q 428 945 365 1023 q 488 733 488 871 l 488 668 l 355 668 l 355 733 q 346 821 355 789 q 320 869 336 852 q 284 889 304 885 q 243 893 264 893 q 202 889 222 893 q 166 869 182 885 q 140 821 150 852 q 131 733 131 789 l 131 292 q 142 198 131 231 q 172 151 154 165 q 209 134 191 136 q 243 131 228 131 q 278 134 258 131 q 314 151 297 136 q 343 198 332 165 q 355 292 355 231 l 355 370 l 197 370 l 197 501 l 488 501 l 488 292 q 428 81 488 154 q 362 26 406 53 q 243 0 318 0 q 125 26 169 0 q 60 81 82 53 q 0 292 0 154 z "},"H":{"ha":568,"x_min":0,"x_max":460,"o":"m 0 0 l 0 1023 l 131 1023 l 131 578 l 328 578 l 328 1023 l 460 1023 l 460 0 l 328 0 l 328 446 l 131 446 l 131 0 l 0 0 z "},"I":{"ha":280,"x_min":41,"x_max":172,"o":"m 41 0 l 41 1023 l 172 1023 l 172 0 l 41 0 z "},"J":{"ha":562,"x_min":0,"x_max":458,"o":"m 0 272 l 0 339 l 131 339 l 131 272 q 141 190 131 219 q 166 148 151 161 q 198 133 182 135 q 229 131 215 131 q 279 140 264 131 q 301 158 294 149 q 328 272 328 191 l 328 1023 l 458 1023 l 458 272 q 403 75 458 144 q 341 25 383 50 q 229 0 300 0 q 118 25 160 0 q 56 75 77 50 q 0 272 0 144 z "},"K":{"ha":623,"x_min":0,"x_max":579,"o":"m 0 372 l 1 375 l 1 1025 l 132 1025 l 132 578 l 422 1025 l 579 1025 l 268 546 l 570 1 l 419 1 l 186 421 l 132 336 l 132 1 l 1 1 l 1 372 l 0 372 z "},"L":{"ha":494,"x_min":0,"x_max":446,"o":"m 0 1 l 0 1025 l 131 1025 l 131 132 l 446 132 l 446 1 l 0 1 z "},"M":{"ha":747,"x_min":0,"x_max":643,"o":"m 0 1 l 0 1025 l 115 1025 l 322 304 l 528 1025 l 643 1025 l 643 1 l 513 1 l 513 492 l 371 1 l 272 1 l 131 492 l 131 1 l 0 1 z "},"N":{"ha":590,"x_min":0,"x_max":492,"o":"m 0 1 l 0 1025 l 110 1025 l 359 406 l 359 1025 l 492 1025 l 492 1 l 380 1 l 131 621 l 131 1 l 0 1 z "},"O":{"ha":562,"x_min":0,"x_max":486,"o":"m 0 293 l 0 733 q 58 945 0 869 q 85 972 69 958 q 124 998 102 986 q 176 1017 147 1010 q 243 1025 205 1025 q 362 999 318 1025 q 428 945 406 972 q 486 733 486 869 l 486 293 q 428 82 486 157 q 362 28 406 54 q 243 1 318 1 q 125 28 169 1 q 58 82 81 54 q 0 293 0 157 m 131 293 q 142 199 131 232 q 172 152 154 167 q 209 135 191 138 q 243 132 228 132 q 276 135 256 132 q 314 152 296 138 q 343 199 332 167 q 355 293 355 232 l 355 733 q 343 826 355 793 q 314 873 332 859 q 276 890 296 888 q 243 893 257 893 q 209 890 227 893 q 172 873 191 888 q 142 826 154 859 q 131 733 131 793 l 131 293 z "},"P":{"ha":533,"x_min":0,"x_max":473,"o":"m 0 1 l 0 1025 l 212 1025 q 411 949 343 1025 q 473 737 473 875 q 411 525 473 597 q 212 447 345 447 l 131 447 l 131 1 l 0 1 m 131 579 l 212 579 q 286 592 267 579 q 311 611 306 604 q 342 737 342 643 q 333 818 342 787 q 309 865 325 848 q 269 887 293 882 q 212 893 244 893 l 131 893 l 131 579 z "},"Q":{"ha":562,"x_min":0,"x_max":582,"o":"m 0 297 l 0 737 q 25 887 0 830 q 87 975 50 945 q 166 1015 123 1006 q 243 1025 208 1025 q 318 1015 276 1025 q 398 975 361 1006 q 461 888 436 945 q 486 737 486 831 l 486 297 q 441 107 486 180 l 582 -61 l 411 -61 l 345 20 q 298 6 323 12 q 243 0 273 0 q 176 8 205 0 q 124 28 147 16 q 85 55 102 40 q 58 85 69 71 q 0 297 0 161 m 131 297 q 163 165 131 205 q 188 143 171 155 q 243 132 205 132 l 253 132 l 154 254 l 318 254 l 347 218 q 354 297 354 253 l 354 737 q 345 822 354 791 q 319 869 335 852 q 283 889 302 885 q 243 893 264 893 q 202 889 222 893 q 166 869 182 885 q 140 822 150 852 q 131 737 131 791 l 131 297 z "},"R":{"ha":579,"x_min":0,"x_max":475,"o":"m 0 1 l 0 1025 l 212 1025 q 411 947 345 1025 q 472 733 472 877 q 411 518 472 591 q 405 511 408 515 q 397 504 401 507 q 455 418 435 468 q 475 304 475 368 l 475 1 l 343 1 l 343 304 q 212 439 343 439 l 147 439 l 131 439 l 131 1 l 0 1 m 131 571 l 147 571 l 212 571 q 286 584 265 571 q 311 603 306 596 q 342 733 342 642 q 333 816 342 785 q 309 864 325 847 q 269 887 293 882 q 212 893 244 893 l 131 893 l 131 571 z "},"S":{"ha":551,"x_min":0,"x_max":489,"o":"m 0 292 l 0 357 l 131 357 l 131 292 q 163 163 131 201 q 188 143 170 153 q 244 132 205 132 q 304 148 281 132 q 338 187 326 164 q 353 237 350 210 q 357 285 357 264 q 346 346 357 321 q 317 388 335 371 q 276 417 298 406 q 232 439 254 429 l 207 450 q 151 477 184 460 q 83 526 117 494 q 0 732 0 607 q 17 851 0 797 q 67 944 35 905 q 145 1003 100 982 q 244 1025 191 1025 q 363 999 319 1025 q 429 945 407 972 q 489 732 489 868 l 489 667 l 357 667 l 357 732 q 345 825 357 791 q 315 873 334 859 q 278 890 297 888 q 244 893 258 893 q 182 874 204 893 q 148 827 160 854 q 134 773 136 800 q 131 732 131 746 q 142 670 131 696 q 171 626 153 644 q 212 594 189 607 q 260 571 235 581 l 282 561 q 336 537 302 553 q 403 489 370 521 q 489 285 489 410 q 431 89 489 167 q 244 1 363 1 q 60 81 122 1 q 0 292 0 154 z "},"T":{"ha":640,"x_min":0,"x_max":579,"o":"m 0 893 l 0 1025 l 579 1025 l 579 893 l 355 893 l 355 1 l 224 1 l 224 893 l 0 893 z "},"U":{"ha":562,"x_min":0,"x_max":458,"o":"m 0 273 l 0 1025 l 131 1025 l 131 273 q 141 192 131 220 q 166 150 151 163 q 198 134 182 136 q 229 132 215 132 q 260 134 243 132 q 292 150 277 136 q 317 192 307 163 q 328 273 328 221 l 328 1025 l 458 1025 l 458 273 q 403 78 458 146 q 340 26 382 50 q 229 1 298 1 q 118 26 160 1 q 56 78 77 50 q 0 273 0 146 z "},"V":{"ha":640,"x_min":0,"x_max":614,"o":"m 0 1025 l 135 1025 l 306 338 l 479 1025 l 614 1025 l 357 1 l 254 1 l 0 1025 z "},"W":{"ha":1000,"x_min":0,"x_max":951,"o":"m 0 1023 l 135 1023 l 279 371 l 424 1023 l 529 1023 l 672 371 l 817 1023 l 951 1023 l 725 0 l 619 0 l 476 654 l 332 0 l 227 0 l 0 1023 z "},"X":{"ha":691,"x_min":0,"x_max":631,"o":"m 0 0 l 241 513 l 4 1023 l 150 1023 l 315 667 l 485 1023 l 631 1023 l 387 513 l 628 0 l 484 0 l 315 358 l 146 0 l 0 0 z "},"Y":{"ha":703,"x_min":-41,"x_max":673,"o":"m -41 1023 l 109 1023 l 315 648 l 524 1023 l 673 1023 l 380 496 l 380 0 l 250 0 l 250 496 l -41 1023 z "},"Z":{"ha":634,"x_min":0,"x_max":550,"o":"m 0 893 l 0 1023 l 528 1023 l 528 897 l 170 131 l 550 131 l 550 0 l 22 0 l 22 127 l 380 893 l 0 893 z "},"[":{"ha":1156,"x_min":0,"x_max":0,"o":""},"\\":{"ha":533,"x_min":0,"x_max":519,"o":"m 0 1023 l 140 1023 l 519 0 l 379 0 l 0 1023 z "},"]":{"ha":1156,"x_min":0,"x_max":0,"o":""},"^":{"ha":1156,"x_min":0,"x_max":0,"o":""},"_":{"ha":646,"x_min":0,"x_max":648,"o":"m 0 0 l 648 0 l 648 -50 l 0 -50 l 0 0 m 0 -82 l 648 -82 l 648 -132 l 0 -132 l 0 -82 z "},"`":{"ha":219,"x_min":0,"x_max":131,"o":"m 0 817 l 0 1026 l 131 1026 l 131 817 l 0 817 m 49 865 l 82 865 l 82 977 l 49 977 l 49 865 z "},"a":{"ha":606,"x_min":0,"x_max":579,"o":"m 0 0 l 236 1023 l 340 1023 l 579 0 l 443 0 l 378 286 l 200 286 l 135 0 l 0 0 m 231 416 l 347 416 l 289 668 l 231 416 z "},"b":{"ha":522,"x_min":0,"x_max":449,"o":"m 0 0 l 0 131 l 0 1023 l 197 1023 q 389 946 328 1023 q 449 736 448 877 q 389 525 449 597 q 378 513 386 521 q 389 498 386 505 q 449 288 448 427 q 389 78 449 147 q 197 0 326 0 l 131 0 l 0 0 m 131 578 l 197 578 q 261 588 242 578 q 288 608 281 599 q 317 736 317 643 q 308 821 317 790 q 282 869 298 852 q 244 889 267 885 q 197 893 222 893 l 131 893 l 131 578 m 131 131 l 197 131 q 244 135 222 131 q 282 155 267 139 q 308 202 298 171 q 317 288 317 233 q 307 375 317 343 q 281 423 297 407 q 244 443 265 439 q 197 447 222 447 l 131 447 l 131 131 z "},"c":{"ha":538,"x_min":0,"x_max":486,"o":"m 0 293 l 0 732 q 58 943 0 868 q 124 997 81 971 q 243 1023 168 1023 q 361 997 318 1023 q 427 943 404 971 q 486 732 486 867 l 486 667 l 354 667 l 354 732 q 342 825 354 791 q 313 873 330 859 q 276 890 296 888 q 243 893 257 893 q 209 890 227 893 q 172 873 191 888 q 142 825 154 859 q 131 732 131 791 l 131 293 q 163 163 131 203 q 188 142 170 153 q 243 131 205 131 q 298 142 281 131 q 323 163 315 153 q 354 293 354 204 l 354 358 l 486 358 l 486 293 q 427 82 486 158 q 361 27 404 54 q 243 0 318 0 q 176 8 205 0 q 124 27 147 16 q 85 53 102 39 q 58 82 69 68 q 0 293 0 157 z "},"d":{"ha":544,"x_min":0,"x_max":464,"o":"m 0 0 l 0 1023 l 204 1023 q 403 942 336 1023 q 464 728 464 868 l 464 297 q 403 82 464 157 q 204 0 336 0 l 0 0 m 131 131 l 204 131 q 252 136 229 131 q 293 157 275 140 q 321 207 310 174 q 332 297 332 240 l 332 728 q 321 818 332 785 q 293 868 310 851 q 252 889 275 885 q 204 893 229 893 l 131 893 l 131 131 z "},"e":{"ha":516,"x_min":0,"x_max":424,"o":"m 0 0 l 0 1023 l 424 1023 l 424 893 l 131 893 l 131 578 l 424 578 l 424 447 l 131 447 l 131 131 l 424 131 l 424 0 l 0 0 z "},"f":{"ha":516,"x_min":0,"x_max":424,"o":"m 0 0 l 0 1023 l 424 1023 l 424 893 l 131 893 l 131 578 l 424 578 l 424 447 l 131 447 l 131 0 l 0 0 z "},"g":{"ha":573,"x_min":0,"x_max":488,"o":"m 0 292 l 0 733 q 60 945 0 871 q 243 1023 122 1024 q 428 945 365 1023 q 488 733 488 871 l 488 668 l 355 668 l 355 733 q 346 821 355 789 q 320 869 336 852 q 284 889 304 885 q 243 893 264 893 q 202 889 222 893 q 166 869 182 885 q 140 821 150 852 q 131 733 131 789 l 131 292 q 142 198 131 231 q 172 151 154 165 q 209 134 191 136 q 243 131 228 131 q 278 134 258 131 q 314 151 297 136 q 343 198 332 165 q 355 292 355 231 l 355 370 l 197 370 l 197 501 l 488 501 l 488 292 q 428 81 488 154 q 362 26 406 53 q 243 0 318 0 q 125 26 169 0 q 60 81 82 53 q 0 292 0 154 z "},"h":{"ha":568,"x_min":0,"x_max":460,"o":"m 0 0 l 0 1023 l 131 1023 l 131 578 l 328 578 l 328 1023 l 460 1023 l 460 0 l 328 0 l 328 446 l 131 446 l 131 0 l 0 0 z "},"i":{"ha":280,"x_min":41,"x_max":172,"o":"m 41 0 l 41 1023 l 172 1023 l 172 0 l 41 0 z "},"j":{"ha":562,"x_min":0,"x_max":458,"o":"m 0 272 l 0 339 l 131 339 l 131 272 q 141 190 131 219 q 166 148 151 161 q 198 133 182 135 q 229 131 215 131 q 279 140 264 131 q 301 158 294 149 q 328 272 328 191 l 328 1023 l 458 1023 l 458 272 q 403 75 458 144 q 341 25 383 50 q 229 0 300 0 q 118 25 160 0 q 56 75 77 50 q 0 272 0 144 z "},"k":{"ha":623,"x_min":0,"x_max":579,"o":"m 0 372 l 1 375 l 1 1025 l 132 1025 l 132 578 l 422 1025 l 579 1025 l 268 546 l 570 1 l 419 1 l 186 421 l 132 336 l 132 1 l 1 1 l 1 372 l 0 372 z "},"l":{"ha":494,"x_min":0,"x_max":446,"o":"m 0 1 l 0 1025 l 131 1025 l 131 132 l 446 132 l 446 1 l 0 1 z "},"m":{"ha":747,"x_min":0,"x_max":643,"o":"m 0 1 l 0 1025 l 115 1025 l 322 304 l 528 1025 l 643 1025 l 643 1 l 513 1 l 513 492 l 371 1 l 272 1 l 131 492 l 131 1 l 0 1 z "},"n":{"ha":590,"x_min":0,"x_max":492,"o":"m 0 1 l 0 1025 l 110 1025 l 359 406 l 359 1025 l 492 1025 l 492 1 l 380 1 l 131 621 l 131 1 l 0 1 z "},"o":{"ha":562,"x_min":0,"x_max":486,"o":"m 0 293 l 0 733 q 58 945 0 869 q 85 972 69 958 q 124 998 102 986 q 176 1017 147 1010 q 243 1025 205 1025 q 362 999 318 1025 q 428 945 406 972 q 486 733 486 869 l 486 293 q 428 82 486 157 q 362 28 406 54 q 243 1 318 1 q 125 28 169 1 q 58 82 81 54 q 0 293 0 157 m 131 293 q 142 199 131 232 q 172 152 154 167 q 209 135 191 138 q 243 132 228 132 q 276 135 256 132 q 314 152 296 138 q 343 199 332 167 q 355 293 355 232 l 355 733 q 343 826 355 793 q 314 873 332 859 q 276 890 296 888 q 243 893 257 893 q 209 890 227 893 q 172 873 191 888 q 142 826 154 859 q 131 733 131 793 l 131 293 z "},"p":{"ha":533,"x_min":0,"x_max":473,"o":"m 0 1 l 0 1025 l 212 1025 q 411 949 343 1025 q 473 737 473 875 q 411 525 473 597 q 212 447 345 447 l 131 447 l 131 1 l 0 1 m 131 579 l 212 579 q 286 592 267 579 q 311 611 306 604 q 342 737 342 643 q 333 818 342 787 q 309 865 325 848 q 269 887 293 882 q 212 893 244 893 l 131 893 l 131 579 z "},"q":{"ha":562,"x_min":0,"x_max":582,"o":"m 0 297 l 0 737 q 25 887 0 830 q 87 975 50 945 q 166 1015 123 1006 q 243 1025 208 1025 q 318 1015 276 1025 q 398 975 361 1006 q 461 888 436 945 q 486 737 486 831 l 486 297 q 441 107 486 180 l 582 -61 l 411 -61 l 345 20 q 298 6 323 12 q 243 0 273 0 q 176 8 205 0 q 124 28 147 16 q 85 55 102 40 q 58 85 69 71 q 0 297 0 161 m 131 297 q 163 165 131 205 q 188 143 171 155 q 243 132 205 132 l 253 132 l 154 254 l 318 254 l 347 218 q 354 297 354 253 l 354 737 q 345 822 354 791 q 319 869 335 852 q 283 889 302 885 q 243 893 264 893 q 202 889 222 893 q 166 869 182 885 q 140 822 150 852 q 131 737 131 791 l 131 297 z "},"r":{"ha":579,"x_min":0,"x_max":475,"o":"m 0 1 l 0 1025 l 212 1025 q 411 947 345 1025 q 472 733 472 877 q 411 518 472 591 q 405 511 408 515 q 397 504 401 507 q 455 418 435 468 q 475 304 475 368 l 475 1 l 343 1 l 343 304 q 212 439 343 439 l 147 439 l 131 439 l 131 1 l 0 1 m 131 571 l 147 571 l 212 571 q 286 584 265 571 q 311 603 306 596 q 342 733 342 642 q 333 816 342 785 q 309 864 325 847 q 269 887 293 882 q 212 893 244 893 l 131 893 l 131 571 z "},"s":{"ha":551,"x_min":0,"x_max":489,"o":"m 0 292 l 0 357 l 131 357 l 131 292 q 163 163 131 201 q 188 143 170 153 q 244 132 205 132 q 304 148 281 132 q 338 187 326 164 q 353 237 350 210 q 357 285 357 264 q 346 346 357 321 q 317 388 335 371 q 276 417 298 406 q 232 439 254 429 l 207 450 q 151 477 184 460 q 83 526 117 494 q 0 732 0 607 q 17 851 0 797 q 67 944 35 905 q 145 1003 100 982 q 244 1025 191 1025 q 363 999 319 1025 q 429 945 407 972 q 489 732 489 868 l 489 667 l 357 667 l 357 732 q 345 825 357 791 q 315 873 334 859 q 278 890 297 888 q 244 893 258 893 q 182 874 204 893 q 148 827 160 854 q 134 773 136 800 q 131 732 131 746 q 142 670 131 696 q 171 626 153 644 q 212 594 189 607 q 260 571 235 581 l 282 561 q 336 537 302 553 q 403 489 370 521 q 489 285 489 410 q 431 89 489 167 q 244 1 363 1 q 60 81 122 1 q 0 292 0 154 z "},"t":{"ha":640,"x_min":0,"x_max":579,"o":"m 0 893 l 0 1025 l 579 1025 l 579 893 l 355 893 l 355 1 l 224 1 l 224 893 l 0 893 z "},"u":{"ha":562,"x_min":0,"x_max":458,"o":"m 0 273 l 0 1025 l 131 1025 l 131 273 q 141 192 131 220 q 166 150 151 163 q 198 134 182 136 q 229 132 215 132 q 260 134 243 132 q 292 150 277 136 q 317 192 307 163 q 328 273 328 221 l 328 1025 l 458 1025 l 458 273 q 403 78 458 146 q 340 26 382 50 q 229 1 298 1 q 118 26 160 1 q 56 78 77 50 q 0 273 0 146 z "},"v":{"ha":640,"x_min":0,"x_max":614,"o":"m 0 1025 l 135 1025 l 306 338 l 479 1025 l 614 1025 l 357 1 l 254 1 l 0 1025 z "},"w":{"ha":1000,"x_min":0,"x_max":951,"o":"m 0 1023 l 135 1023 l 279 371 l 424 1023 l 529 1023 l 672 371 l 817 1023 l 951 1023 l 725 0 l 619 0 l 476 654 l 332 0 l 227 0 l 0 1023 z "},"x":{"ha":691,"x_min":0,"x_max":631,"o":"m 0 0 l 241 513 l 4 1023 l 150 1023 l 315 667 l 485 1023 l 631 1023 l 387 513 l 628 0 l 484 0 l 315 358 l 146 0 l 0 0 z "},"y":{"ha":703,"x_min":-41,"x_max":673,"o":"m -41 1023 l 109 1023 l 315 648 l 524 1023 l 673 1023 l 380 496 l 380 0 l 250 0 l 250 496 l -41 1023 z "},"z":{"ha":634,"x_min":0,"x_max":550,"o":"m 0 893 l 0 1023 l 528 1023 l 528 897 l 170 131 l 550 131 l 550 0 l 22 0 l 22 127 l 380 893 l 0 893 z "},"{":{"ha":1156,"x_min":0,"x_max":0,"o":""},"|":{"ha":280,"x_min":41,"x_max":172,"o":"m 41 0 l 41 1023 l 172 1023 l 172 0 l 41 0 z "},"}":{"ha":1156,"x_min":0,"x_max":0,"o":""},"~":{"ha":1156,"x_min":0,"x_max":0,"o":""}," ":{"ha":427,"x_min":0,"x_max":0,"o":""},"©":{"ha":1156,"x_min":0,"x_max":0,"o":""},"­":{"ha":522,"x_min":0,"x_max":427,"o":"m 0 449 l 0 579 l 427 579 l 427 449 l 0 449 z "},"®":{"ha":1156,"x_min":0,"x_max":0,"o":""}," ":{"ha":512,"x_min":0,"x_max":0,"o":""}," ":{"ha":1026,"x_min":0,"x_max":0,"o":""}," ":{"ha":512,"x_min":0,"x_max":0,"o":""}," ":{"ha":1026,"x_min":0,"x_max":0,"o":""}," ":{"ha":341,"x_min":0,"x_max":0,"o":""}," ":{"ha":255,"x_min":0,"x_max":0,"o":""}," ":{"ha":170,"x_min":0,"x_max":0,"o":""}," ":{"ha":170,"x_min":0,"x_max":0,"o":""}," ":{"ha":127,"x_min":0,"x_max":0,"o":""}," ":{"ha":204,"x_min":0,"x_max":0,"o":""}," ":{"ha":56,"x_min":0,"x_max":0,"o":""},"‐":{"ha":522,"x_min":0,"x_max":427,"o":"m 0 449 l 0 579 l 427 579 l 427 449 l 0 449 z "},"‑":{"ha":522,"x_min":0,"x_max":427,"o":"m 0 449 l 0 579 l 427 579 l 427 449 l 0 449 z "},"‒":{"ha":522,"x_min":0,"x_max":427,"o":"m 0 449 l 0 579 l 427 579 l 427 449 l 0 449 z "},"–":{"ha":522,"x_min":0,"x_max":427,"o":"m 0 449 l 0 579 l 427 579 l 427 449 l 0 449 z "},"—":{"ha":522,"x_min":0,"x_max":427,"o":"m 0 449 l 0 579 l 427 579 l 427 449 l 0 449 z "},"‘":{"ha":219,"x_min":0,"x_max":131,"o":"m 0 814 l 0 1023 l 131 1023 l 131 814 l 0 814 z "},"’":{"ha":219,"x_min":0,"x_max":131,"o":"m 0 814 l 0 1023 l 131 1023 l 131 814 l 0 814 z "},"“":{"ha":393,"x_min":0,"x_max":323,"o":"m 0 814 l 0 1023 l 131 1023 l 131 814 l 0 814 m 193 814 l 193 1023 l 323 1023 l 323 814 l 193 814 z "},"”":{"ha":393,"x_min":0,"x_max":323,"o":"m 0 814 l 0 1023 l 131 1023 l 131 814 l 0 814 m 193 814 l 193 1023 l 323 1023 l 323 814 l 193 814 z "},"•":{"ha":1156,"x_min":0,"x_max":0,"o":""},"…":{"ha":774,"x_min":0,"x_max":647,"o":"m 0 0 l 0 147 l 131 147 l 131 0 l 0 0 m 258 0 l 258 147 l 389 147 l 389 0 l 258 0 m 517 0 l 517 147 l 647 147 l 647 0 l 517 0 z "}," ":{"ha":204,"x_min":0,"x_max":0,"o":""}," ":{"ha":255,"x_min":0,"x_max":0,"o":""},"":{"ha":1024,"x_min":0,"x_max":1024,"o":"m 0 1024 l 1024 1024 l 1024 0 l 0 0 l 0 1024 z "}}}
